#tb 0: 1/25
0,          0,          0,        1,   405504, 0xaa82add0
0,          1,          1,        1,   405504, 0x0e9d65d0
0,          2,          2,        1,   405504, 0xd8470d82
0,          3,          3,        1,   405504, 0x11dc7a8a
0,          4,          4,        1,   405504, 0xc538c776
0,          5,          5,        1,   405504, 0x653b848e
0,          6,          6,        1,   405504, 0xa6b773ef
0,          7,          7,        1,   405504, 0x6cf17c3a
0,          8,          8,        1,   405504, 0x7f5d6f17
0,          9,          9,        1,   405504, 0x09167f36
0,         10,         10,        1,   405504, 0xc650bb68
0,         11,         11,        1,   405504, 0x25cebcac
0,         12,         12,        1,   405504, 0xb2eb6342
0,         13,         13,        1,   405504, 0xe827a01a
0,         14,         14,        1,   405504, 0xe0bb2aba
0,         15,         15,        1,   405504, 0xd32e0e45
0,         16,         16,        1,   405504, 0xd5956738
0,         17,         17,        1,   405504, 0xb8dd99db
0,         18,         18,        1,   405504, 0x6d21c1ef
0,         19,         19,        1,   405504, 0xd8db3a49
0,         20,         20,        1,   405504, 0x235a53c6
0,         21,         21,        1,   405504, 0x9db66c64
0,         22,         22,        1,   405504, 0x71dc0e7a
0,         23,         23,        1,   405504, 0x05f530f8
0,         24,         24,        1,   405504, 0x4f053cb1
0,         25,         25,        1,   405504, 0xdcf51aba
0,         26,         26,        1,   405504, 0x59031fd1
0,         27,         27,        1,   405504, 0x8451f2e2
0,         28,         28,        1,   405504, 0xd393ebfc
0,         29,         29,        1,   405504, 0x95a9ed6b
0,         30,         30,        1,   405504, 0xa04b5e71
0,         31,         31,        1,   405504, 0xf1ee4788
0,         32,         32,        1,   405504, 0x9f3213ea
0,         33,         33,        1,   405504, 0x1e021a23
0,         34,         34,        1,   405504, 0xa1c21b9b
0,         35,         35,        1,   405504, 0x15a9d0ee
0,         36,         36,        1,   405504, 0xd99f8291
0,         37,         37,        1,   405504, 0x3e197839
0,         38,         38,        1,   405504, 0x851ba77b
0,         39,         39,        1,   405504, 0xc808270a
0,         40,         40,        1,   405504, 0x8e38821e
0,         41,         41,        1,   405504, 0x75858815
0,         42,         42,        1,   405504, 0x4633861b
0,         43,         43,        1,   405504, 0xb0bdb8a9
0,         44,         44,        1,   405504, 0x15681e03
0,         45,         45,        1,   405504, 0x467cfea8
0,         46,         46,        1,   405504, 0xd53d02ad
0,         47,         47,        1,   405504, 0xf4cde081
0,         48,         48,        1,   405504, 0x3ab111f5
0,         49,         49,        1,   405504, 0xd1fa9f1d
